<mxfile host="app.diagrams.net" modified="2024-05-19T09:33:01.260Z" agent="Mozilla/5.0 (X11; Linux x86_64; rv:121.0) Gecko/20100101 Firefox/121.0" etag="BHfhhiWOdcciLK_7zVZN" version="24.4.4" type="github">
  <diagram name="Page-1" id="b520641d-4fe3-3701-9064-5fc419738815">
    <mxGraphModel dx="1434" dy="790" grid="1" gridSize="10" guides="1" tooltips="1" connect="1" arrows="1" fold="1" page="1" pageScale="1" pageWidth="1100" pageHeight="850" background="none" math="0" shadow="0">
      <root>
        <mxCell id="0" />
        <mxCell id="1" parent="0" />
        <mxCell id="21ea969265ad0168-6" value="&lt;div&gt;POSTGRES&lt;br&gt;&lt;/div&gt;" style="swimlane;html=1;fontStyle=0;childLayout=stackLayout;horizontal=1;startSize=26;fillColor=#e0e0e0;horizontalStack=0;resizeParent=1;resizeLast=0;collapsible=1;marginBottom=0;swimlaneFillColor=#66CC00;align=center;rounded=1;shadow=0;comic=0;labelBackgroundColor=none;strokeWidth=1;fontFamily=Verdana;fontSize=12" parent="1" vertex="1">
          <mxGeometry x="16.25" y="40" width="80" height="60" as="geometry">
            <mxRectangle x="160" y="74" width="90" height="30" as="alternateBounds" />
          </mxGeometry>
        </mxCell>
        <mxCell id="21ea969265ad0168-7" value="&lt;div&gt;dlyprms&lt;/div&gt;&lt;div&gt;dlystat&lt;br&gt;&lt;/div&gt;" style="text;html=1;strokeColor=none;fillColor=none;spacingLeft=4;spacingRight=4;whiteSpace=wrap;overflow=hidden;rotatable=0;points=[[0,0.5],[1,0.5]];portConstraint=eastwest;" parent="21ea969265ad0168-6" vertex="1">
          <mxGeometry y="26" width="80" height="34" as="geometry" />
        </mxCell>
        <mxCell id="62sTpGnNLeASL4iVha29-1" value="CSV" style="swimlane;html=1;fontStyle=0;childLayout=stackLayout;horizontal=1;startSize=26;fillColor=#e0e0e0;horizontalStack=0;resizeParent=1;resizeLast=0;collapsible=1;marginBottom=0;swimlaneFillColor=#66CC00;align=center;rounded=1;shadow=0;comic=0;labelBackgroundColor=none;strokeWidth=1;fontFamily=Verdana;fontSize=12" vertex="1" parent="1">
          <mxGeometry x="16.25" y="120" width="80" height="60" as="geometry">
            <mxRectangle x="160" y="74" width="90" height="30" as="alternateBounds" />
          </mxGeometry>
        </mxCell>
        <mxCell id="62sTpGnNLeASL4iVha29-2" value="&lt;div&gt;dlyprms&lt;/div&gt;&lt;div&gt;dlystat&lt;br&gt;&lt;/div&gt;" style="text;html=1;strokeColor=none;fillColor=none;spacingLeft=4;spacingRight=4;whiteSpace=wrap;overflow=hidden;rotatable=0;points=[[0,0.5],[1,0.5]];portConstraint=eastwest;" vertex="1" parent="62sTpGnNLeASL4iVha29-1">
          <mxGeometry y="26" width="80" height="34" as="geometry" />
        </mxCell>
        <mxCell id="62sTpGnNLeASL4iVha29-3" value="XML" style="swimlane;html=1;fontStyle=0;childLayout=stackLayout;horizontal=1;startSize=26;fillColor=#e0e0e0;horizontalStack=0;resizeParent=1;resizeLast=0;collapsible=1;marginBottom=0;swimlaneFillColor=#66CC00;align=center;rounded=1;shadow=0;comic=0;labelBackgroundColor=none;strokeWidth=1;fontFamily=Verdana;fontSize=12" vertex="1" parent="1">
          <mxGeometry x="16.25" y="200" width="80" height="60" as="geometry">
            <mxRectangle x="160" y="74" width="90" height="30" as="alternateBounds" />
          </mxGeometry>
        </mxCell>
        <mxCell id="62sTpGnNLeASL4iVha29-4" value="&lt;div&gt;dlyprms&lt;/div&gt;&lt;div&gt;dlystat&lt;br&gt;&lt;/div&gt;" style="text;html=1;strokeColor=none;fillColor=none;spacingLeft=4;spacingRight=4;whiteSpace=wrap;overflow=hidden;rotatable=0;points=[[0,0.5],[1,0.5]];portConstraint=eastwest;" vertex="1" parent="62sTpGnNLeASL4iVha29-3">
          <mxGeometry y="26" width="80" height="34" as="geometry" />
        </mxCell>
        <mxCell id="62sTpGnNLeASL4iVha29-17" style="edgeStyle=orthogonalEdgeStyle;rounded=0;orthogonalLoop=1;jettySize=auto;html=1;" edge="1" parent="1" source="62sTpGnNLeASL4iVha29-5" target="62sTpGnNLeASL4iVha29-16">
          <mxGeometry relative="1" as="geometry" />
        </mxCell>
        <mxCell id="62sTpGnNLeASL4iVha29-5" value="RAW" style="shape=mxgraph.signs.nature.snowflake;html=1;pointerEvents=1;fillColor=#000000;strokeColor=none;verticalLabelPosition=bottom;verticalAlign=top;align=center;" vertex="1" parent="1">
          <mxGeometry x="340" y="90" width="87" height="98" as="geometry" />
        </mxCell>
        <mxCell id="62sTpGnNLeASL4iVha29-6" value="" style="sketch=0;points=[[0,0,0],[0.25,0,0],[0.5,0,0],[0.75,0,0],[1,0,0],[0,1,0],[0.25,1,0],[0.5,1,0],[0.75,1,0],[1,1,0],[0,0.25,0],[0,0.5,0],[0,0.75,0],[1,0.25,0],[1,0.5,0],[1,0.75,0]];outlineConnect=0;fontColor=#232F3E;fillColor=#8C4FFF;strokeColor=#ffffff;dashed=0;verticalLabelPosition=bottom;verticalAlign=top;align=center;html=1;fontSize=12;fontStyle=0;aspect=fixed;shape=mxgraph.aws4.resourceIcon;resIcon=mxgraph.aws4.managed_streaming_for_kafka;" vertex="1" parent="1">
          <mxGeometry x="230" y="90" width="58" height="58" as="geometry" />
        </mxCell>
        <mxCell id="62sTpGnNLeASL4iVha29-7" style="edgeStyle=orthogonalEdgeStyle;rounded=0;orthogonalLoop=1;jettySize=auto;html=1;entryX=0;entryY=0.5;entryDx=0;entryDy=0;entryPerimeter=0;" edge="1" parent="1" source="21ea969265ad0168-6" target="62sTpGnNLeASL4iVha29-6">
          <mxGeometry relative="1" as="geometry" />
        </mxCell>
        <mxCell id="62sTpGnNLeASL4iVha29-8" style="edgeStyle=orthogonalEdgeStyle;rounded=0;orthogonalLoop=1;jettySize=auto;html=1;" edge="1" parent="1" source="62sTpGnNLeASL4iVha29-2" target="62sTpGnNLeASL4iVha29-6">
          <mxGeometry relative="1" as="geometry" />
        </mxCell>
        <mxCell id="62sTpGnNLeASL4iVha29-9" style="edgeStyle=orthogonalEdgeStyle;rounded=0;orthogonalLoop=1;jettySize=auto;html=1;entryX=0;entryY=0.25;entryDx=0;entryDy=0;entryPerimeter=0;" edge="1" parent="1" source="62sTpGnNLeASL4iVha29-4" target="62sTpGnNLeASL4iVha29-6">
          <mxGeometry relative="1" as="geometry" />
        </mxCell>
        <mxCell id="62sTpGnNLeASL4iVha29-10" style="edgeStyle=orthogonalEdgeStyle;rounded=0;orthogonalLoop=1;jettySize=auto;html=1;entryX=0.31;entryY=0.357;entryDx=0;entryDy=0;entryPerimeter=0;" edge="1" parent="1" source="62sTpGnNLeASL4iVha29-6" target="62sTpGnNLeASL4iVha29-5">
          <mxGeometry relative="1" as="geometry" />
        </mxCell>
        <mxCell id="62sTpGnNLeASL4iVha29-11" value="Reporting" style="shape=mxgraph.signs.nature.snowflake;html=1;pointerEvents=1;fillColor=#000000;strokeColor=none;verticalLabelPosition=bottom;verticalAlign=top;align=center;" vertex="1" parent="1">
          <mxGeometry x="540" y="90" width="87" height="98" as="geometry" />
        </mxCell>
        <mxCell id="62sTpGnNLeASL4iVha29-16" value="" style="shape=image;html=1;verticalLabelPosition=bottom;verticalAlign=top;imageAspect=1;aspect=fixed;image=img/clipart/Gear_128x128.png" vertex="1" parent="1">
          <mxGeometry x="450" y="188" width="52" height="61" as="geometry" />
        </mxCell>
        <mxCell id="62sTpGnNLeASL4iVha29-18" style="edgeStyle=orthogonalEdgeStyle;rounded=0;orthogonalLoop=1;jettySize=auto;html=1;entryX=0.08;entryY=0.582;entryDx=0;entryDy=0;entryPerimeter=0;" edge="1" parent="1" source="62sTpGnNLeASL4iVha29-16" target="62sTpGnNLeASL4iVha29-11">
          <mxGeometry relative="1" as="geometry" />
        </mxCell>
      </root>
    </mxGraphModel>
  </diagram>
</mxfile>
